<svg width="33" height="27" viewBox="0 0 33 27" fill="none" xmlns="http://www.w3.org/2000/svg">
<g filter="url(#filter0_d_0_631)">
<path fill-rule="evenodd" clip-rule="evenodd" d="M16.3035 0C9.50583 0 4 5.50583 4 12.3035C4 17.7478 7.52188 22.3463 12.4125 23.9765C13.0277 24.0842 13.2584 23.715 13.2584 23.3921C13.2584 23.0999 13.243 22.131 13.243 21.1005C10.1518 21.6696 9.35203 20.347 9.10596 19.6549C8.96755 19.3012 8.36775 18.2092 7.84485 17.917C7.41423 17.6863 6.79905 17.1173 7.82947 17.1019C8.79838 17.0865 9.49045 17.9939 9.72114 18.363C10.8285 20.2239 12.5971 19.701 13.3045 19.3781C13.4122 18.5783 13.7352 18.04 14.0889 17.7325C11.3514 17.4249 8.49079 16.3637 8.49079 11.6576C8.49079 10.3196 8.96755 9.21226 9.7519 8.35102C9.62886 8.04343 9.19824 6.78232 9.87493 5.09058C9.87493 5.09058 10.9054 4.76762 13.2584 6.3517C14.2427 6.07487 15.2885 5.93645 16.3343 5.93645C17.3801 5.93645 18.4259 6.07487 19.4102 6.3517C21.7632 4.75224 22.7936 5.09058 22.7936 5.09058C23.4703 6.78232 23.0397 8.04343 22.9167 8.35102C23.701 9.21226 24.1778 10.3042 24.1778 11.6576C24.1778 16.3791 21.3018 17.4249 18.5643 17.7325C19.0103 18.1169 19.3948 18.8552 19.3948 20.0086C19.3948 21.6542 19.3794 22.9768 19.3794 23.3921C19.3794 23.715 19.6101 24.0995 20.2253 23.9765C22.6676 23.1519 24.79 21.5821 26.2936 19.4882C27.7972 17.3941 28.6063 14.8814 28.6071 12.3035C28.6071 5.50583 23.1012 0 16.3035 0Z" fill="#4EE1A0"/>
</g>
<defs>
<filter id="filter0_d_0_631" x="0" y="0" width="32.6071" height="32" filterUnits="userSpaceOnUse" color-interpolation-filters="sRGB">
<feFlood flood-opacity="0" result="BackgroundImageFix"/>
<feColorMatrix in="SourceAlpha" type="matrix" values="0 0 0 0 0 0 0 0 0 0 0 0 0 0 0 0 0 0 127 0" result="hardAlpha"/>
<feOffset dy="4"/>
<feGaussianBlur stdDeviation="2"/>
<feComposite in2="hardAlpha" operator="out"/>
<feColorMatrix type="matrix" values="0 0 0 0 0 0 0 0 0 0 0 0 0 0 0 0 0 0 0.25 0"/>
<feBlend mode="normal" in2="BackgroundImageFix" result="effect1_dropShadow_0_631"/>
<feBlend mode="normal" in="SourceGraphic" in2="effect1_dropShadow_0_631" result="shape"/>
</filter>
</defs>
</svg>
