<svg width="26" height="26" viewBox="0 0 26 26" fill="none" xmlns="http://www.w3.org/2000/svg">
<g id="LinkedIn">
<g id="Shape">
<path fill-rule="evenodd" clip-rule="evenodd" d="M6.5513 4.3042C5.41165 4.3042 4.48447 5.23017 4.48447 6.36833C4.48447 7.50724 5.41165 8.4338 6.5513 8.4338C7.68872 8.4338 8.61408 7.50724 8.61408 6.36833C8.61408 5.23017 7.68872 4.3042 6.5513 4.3042ZM4.76655 9.99818V21.4515H8.32916L8.33051 9.99818H4.76655ZM10.5646 9.99713V21.4503L14.1192 21.4517L14.1206 15.7845C14.1206 14.3298 14.3739 12.8429 16.2535 12.8429C18.1044 12.8429 18.1044 14.5976 18.1044 15.8789V21.4503L21.6629 21.449V15.1689C21.6629 12.3348 21.1456 9.71224 17.3929 9.71224C15.6304 9.71224 14.4769 10.7085 14.0247 11.5618H13.9747L13.9747 9.99713H10.5646ZM23.4355 25H2.98187C2.00598 25 1.21204 24.223 1.21204 23.268V2.73068C1.21204 1.77638 2.00598 1 2.98187 1H23.4355C24.4151 1 25.212 1.77638 25.212 2.73068V23.268C25.212 24.223 24.4151 25 23.4355 25Z" fill="white"/>
<path d="M4.76655 9.99818V9.49818H4.26655V9.99818H4.76655ZM4.76655 21.4515H4.26655V21.9515H4.76655V21.4515ZM8.32916 21.4515V21.9515H8.8291L8.82916 21.4515L8.32916 21.4515ZM8.33051 9.99818L8.83051 9.99824L8.83057 9.49818H8.33051V9.99818ZM10.5646 9.99713V9.49713H10.0646V9.99713H10.5646ZM10.5646 21.4503H10.0646V21.9501L10.5645 21.9503L10.5646 21.4503ZM14.1192 21.4517L14.119 21.9517L14.619 21.9519L14.6192 21.4518L14.1192 21.4517ZM14.1206 15.7845L14.6206 15.7846V15.7845H14.1206ZM18.1044 21.4503H17.6044V21.9505L18.1045 21.9503L18.1044 21.4503ZM21.6629 21.449L21.6631 21.949L22.1629 21.9488V21.449H21.6629ZM14.0247 11.5618V12.0618H14.3255L14.4664 11.7959L14.0247 11.5618ZM13.9747 11.5618L13.4747 11.5617L13.4746 12.0618H13.9747V11.5618ZM13.9747 9.99713L14.4747 9.99716L14.4748 9.49713H13.9747V9.99713ZM6.5513 3.8042C5.13612 3.8042 3.98447 4.95341 3.98447 6.36833H4.98447C4.98447 5.50692 5.68718 4.8042 6.5513 4.8042V3.8042ZM3.98447 6.36833C3.98447 7.78369 5.13582 8.9338 6.5513 8.9338V7.9338C5.68748 7.9338 4.98447 7.23078 4.98447 6.36833H3.98447ZM6.5513 8.9338C7.96548 8.9338 9.11408 7.78276 9.11408 6.36833H8.11408C8.11408 7.23171 7.41196 7.9338 6.5513 7.9338V8.9338ZM9.11408 6.36833C9.11408 4.95433 7.96517 3.8042 6.5513 3.8042V4.8042C7.41227 4.8042 8.11408 5.506 8.11408 6.36833H9.11408ZM4.26655 9.99818V21.4515H5.26655V9.99818H4.26655ZM4.76655 21.9515H8.32916V20.9515H4.76655V21.9515ZM8.82916 21.4515L8.83051 9.99824L7.83051 9.99812L7.82916 21.4514L8.82916 21.4515ZM8.33051 9.49818H4.76655V10.4982H8.33051V9.49818ZM10.0646 9.99713V21.4503H11.0646V9.99713H10.0646ZM10.5645 21.9503L14.119 21.9517L14.1194 20.9517L10.5648 20.9503L10.5645 21.9503ZM14.6192 21.4518L14.6206 15.7846L13.6206 15.7843L13.6192 21.4516L14.6192 21.4518ZM14.6206 15.7845C14.6206 15.0635 14.6882 14.4399 14.9223 14.0054C15.0329 13.8002 15.1777 13.6433 15.3725 13.5337C15.57 13.4225 15.8495 13.3429 16.2535 13.3429V12.3429C15.7176 12.3429 15.2606 12.4491 14.882 12.6622C14.5007 12.8769 14.2297 13.1826 14.042 13.531C13.6796 14.2036 13.6206 15.0508 13.6206 15.7845H14.6206ZM16.2535 13.3429C16.6351 13.3429 16.8752 13.4322 17.0343 13.545C17.1949 13.6588 17.3166 13.8276 17.4066 14.0606C17.5978 14.5556 17.6044 15.2134 17.6044 15.8789H18.6044C18.6044 15.2632 18.6109 14.403 18.3394 13.7002C18.1981 13.3344 17.9727 12.9844 17.6127 12.7292C17.2512 12.4729 16.7973 12.3429 16.2535 12.3429V13.3429ZM17.6044 15.8789V21.4503H18.6044V15.8789H17.6044ZM18.1045 21.9503L21.6631 21.949L21.6627 20.949L18.1042 20.9503L18.1045 21.9503ZM22.1629 21.449V15.1689H21.1629V21.449H22.1629ZM22.1629 15.1689C22.1629 13.7463 22.0388 12.2595 21.3653 11.1229C20.6576 9.92862 19.4046 9.21224 17.3929 9.21224V10.2122C19.1339 10.2122 20.0158 10.8071 20.505 11.6327C21.0283 12.5159 21.1629 13.7573 21.1629 15.1689H22.1629ZM17.3929 9.21224C15.4299 9.21224 14.1144 10.3248 13.5829 11.3276L14.4664 11.7959C14.8394 11.0922 15.8308 10.2122 17.3929 10.2122V9.21224ZM14.0247 11.0618H13.9747V12.0618H14.0247V11.0618ZM14.4747 11.5618L14.4747 9.99716L13.4747 9.9971L13.4747 11.5617L14.4747 11.5618ZM13.9747 9.49713H10.5646V10.4971H13.9747V9.49713ZM23.4355 24.5H2.98187V25.5H23.4355V24.5ZM2.98187 24.5C2.27188 24.5 1.71204 23.9368 1.71204 23.268H0.712036C0.712036 24.5093 1.74008 25.5 2.98187 25.5V24.5ZM1.71204 23.268V2.73068H0.712036V23.268H1.71204ZM1.71204 2.73068C1.71204 2.063 2.27152 1.5 2.98187 1.5V0.5C1.74044 0.5 0.712036 1.48975 0.712036 2.73068H1.71204ZM2.98187 1.5H23.4355V0.5H2.98187V1.5ZM23.4355 1.5C24.1514 1.5 24.712 2.06476 24.712 2.73068H25.712C25.712 1.48799 24.6788 0.5 23.4355 0.5V1.5ZM24.712 2.73068V23.268H25.712V2.73068H24.712ZM24.712 23.268C24.712 23.935 24.151 24.5 23.4355 24.5V25.5C24.6792 25.5 25.712 24.5111 25.712 23.268H24.712Z" fill="black"/>
</g>
</g>
</svg>
